<?xml version="1.0" standalone="no"?>
<!DOCTYPE svg PUBLIC "-//W3C//DTD SVG 20010904//EN"
 "http://www.w3.org/TR/2001/REC-SVG-20010904/DTD/svg10.dtd">
<svg version="1.0" xmlns="http://www.w3.org/2000/svg"
 width="512.000000pt" height="512.000000pt" viewBox="0 0 512.000000 512.000000"
 preserveAspectRatio="xMidYMid meet">
<metadata>
Created by potrace 1.11, written by Peter Selinger 2001-2013
</metadata>
<g transform="translate(0.000000,512.000000) scale(0.100000,-0.100000)"
fill="#000000" stroke="none">
<path d="M2859 5026 c-2 -3 -29 -6 -59 -9 -85 -8 -121 -29 -196 -114 -38 -43
-73 -81 -79 -85 -5 -4 -22 6 -36 22 -24 27 -139 88 -139 74 0 -4 -6 -2 -12 3
-7 6 -35 16 -63 22 -82 19 -89 20 -195 36 -14 2 -25 4 -25 5 0 3 -152 13 -200
13 -50 1 -164 -11 -175 -18 -25 -16 -348 -22 -630 -13 -109 3 -132 -2 -277
-69 -29 -14 -51 -49 -51 -83 0 -8 -3 -26 -6 -39 -3 -13 -8 -54 -11 -90 -3 -36
-7 -84 -9 -106 -3 -22 -7 -83 -11 -135 -4 -52 -9 -120 -11 -150 -5 -78 -5
-770 0 -860 5 -84 17 -304 21 -395 1 -33 6 -118 10 -190 5 -71 9 -158 9 -192
1 -35 3 -63 6 -63 3 0 5 -33 6 -73 1 -39 4 -144 8 -232 12 -309 4 -717 -18
-906 -3 -24 -8 -69 -11 -99 -3 -30 -8 -68 -11 -85 -3 -16 -8 -42 -10 -57 -11
-74 -14 -88 -29 -158 -3 -14 -7 -35 -9 -46 -8 -39 -55 -228 -75 -296 -11 -38
-17 -68 -14 -68 3 0 1 -6 -5 -12 -6 -7 -11 -16 -11 -20 -1 -5 -1 -9 -2 -10 0
-2 -2 -12 -4 -23 -2 -11 -6 -30 -9 -42 -24 -90 -26 -126 -10 -159 32 -66 204
-148 399 -190 60 -13 117 -23 156 -28 24 -3 64 -8 87 -11 92 -12 338 -6 412
10 72 14 136 42 166 70 39 37 38 33 34 255 -8 347 -3 574 15 730 3 19 7 58 10
85 3 28 7 61 9 75 3 14 7 43 11 65 3 22 10 63 16 91 5 28 12 64 14 80 3 16 8
40 12 54 3 14 7 34 8 45 2 11 10 52 20 90 9 39 18 79 21 90 2 11 13 56 24 100
12 44 23 87 25 95 7 33 45 170 69 250 14 47 25 85 25 85 0 0 2 7 5 15 3 8 14
47 25 85 11 39 42 147 70 240 29 94 60 199 70 235 10 36 35 119 54 185 19 66
42 147 51 180 43 158 65 243 70 269 3 15 10 42 15 59 9 29 66 283 77 347 4 22
13 67 20 95 1 6 5 28 9 50 3 22 8 51 10 64 6 38 13 36 21 -5 9 -52 24 -125 70
-354 6 -27 52 -223 60 -255 3 -11 10 -36 15 -55 5 -19 12 -46 15 -60 3 -14 21
-81 40 -150 20 -69 38 -136 40 -149 3 -14 7 -28 10 -32 4 -7 77 -252 94 -314
4 -16 35 -120 68 -230 59 -195 86 -290 82 -290 -1 0 4 -13 10 -30 7 -16 19
-55 27 -85 8 -30 21 -80 29 -110 9 -30 17 -62 19 -70 2 -8 4 -15 5 -15 1 0 3
-9 5 -20 2 -11 13 -58 25 -105 11 -47 23 -98 26 -115 3 -16 9 -43 14 -60 4
-16 12 -48 16 -70 4 -22 8 -44 10 -50 10 -43 50 -303 59 -388 4 -31 9 -80 12
-109 3 -29 6 -233 7 -453 1 -220 4 -409 8 -420 7 -18 83 -67 112 -71 6 -1 29
-7 52 -13 112 -30 469 -28 584 4 8 2 31 7 50 10 34 5 109 22 140 32 8 2 15 4
15 4 0 -4 142 51 175 69 103 53 135 97 124 170 -3 19 -27 118 -54 220 -71 269
-98 385 -115 495 -2 11 -9 53 -15 93 -6 40 -13 87 -15 105 -2 17 -4 32 -5 32
0 0 -3 25 -5 55 -2 30 -8 98 -12 150 -10 122 -9 739 2 935 4 83 8 183 9 222 1
40 3 73 6 73 3 0 5 21 6 48 1 45 8 186 20 392 3 52 7 147 8 211 2 63 5 120 7
125 6 11 2 625 -5 759 -10 192 -22 343 -41 485 -2 14 -3 35 -4 47 -1 26 -34
60 -76 78 -47 20 -162 30 -450 40 -165 6 -276 12 -345 19 -103 12 -145 18
-154 23 -4 3 -58 7 -120 9 -61 1 -124 5 -141 8 -16 3 -66 8 -110 11 -44 4 -83
9 -86 11 -3 2 -8 2 -10 0z"/>
</g>
</svg>
